<?xml version="1.0" encoding="UTF-8" standalone="no"?>
<svg
   id="Layer_5"
   data-name="Layer 5"
   viewBox="0 0 54.72 54.72"
   version="1.1"
   sodipodi:docname="icon.svg"
   inkscape:version="1.1.2 (0a00cf5339, 2022-02-04)"
   xmlns:inkscape="http://www.inkscape.org/namespaces/inkscape"
   xmlns:sodipodi="http://sodipodi.sourceforge.net/DTD/sodipodi-0.dtd"
   xmlns="http://www.w3.org/2000/svg"
   xmlns:svg="http://www.w3.org/2000/svg"
   xmlns:rdf="http://www.w3.org/1999/02/22-rdf-syntax-ns#"
   xmlns:cc="http://creativecommons.org/ns#"
   xmlns:dc="http://purl.org/dc/elements/1.1/">
  <sodipodi:namedview
     id="namedview11"
     pagecolor="#ffffff"
     bordercolor="#666666"
     borderopacity="1.0"
     inkscape:pageshadow="2"
     inkscape:pageopacity="0.0"
     inkscape:pagecheckerboard="0"
     showgrid="false"
     inkscape:zoom="16"
     inkscape:cx="34.5625"
     inkscape:cy="22.3125"
     inkscape:window-width="2560"
     inkscape:window-height="1403"
     inkscape:window-x="0"
     inkscape:window-y="0"
     inkscape:window-maximized="1"
     inkscape:current-layer="Layer_5" />
  <defs
     id="defs4">
    <style
       id="style2">.cls-1{fill:#28aae2;}</style>
  </defs>
  <title
     id="title6">final_courseticket_v5</title>
  <metadata
     id="metadata828">
    <rdf:RDF>
      <cc:Work
         rdf:about="">
        <dc:title>final_courseticket_v5</dc:title>
      </cc:Work>
    </rdf:RDF>
  </metadata>
  <path
     style="fill:#326ce5;fill-opacity:1;stroke:#ffffff;stroke-width:0;stroke-miterlimit:4;stroke-dasharray:none;stroke-opacity:1"
     d="m 27.604255,0.06130475 a 3.6241238,3.5944654 0 0 1 1.388871,0.3514593 L 47.945271,9.4682993 a 3.6241238,3.5944654 0 0 1 1.960905,2.4384027 l 4.675619,20.341022 a 3.6241238,3.5944654 0 0 1 -0.492043,2.755927 3.6241238,3.5944654 0 0 1 -0.206031,0.286016 L 40.765803,51.59981 a 3.6241238,3.5944654 0 0 1 -2.833487,1.352511 l -21.036668,-0.0047 A 3.6241238,3.5944654 0 0 1 14.062157,51.597382 L 0.94908332,35.284816 A 3.6241238,3.5944654 0 0 1 0.24858792,32.242874 L 4.9314826,11.901851 A 3.6241238,3.5944654 0 0 1 6.892384,9.4634518 L 25.846957,0.41276405 a 3.6241238,3.5944654 0 0 1 1.757298,-0.3514593 z"
     id="path858"
     inkscape:connector-curvature="0"
     inkscape:export-filename="new.png"
     inkscape:export-xdpi="250.55"
     inkscape:export-ydpi="250.55" />
  <path
     style="fill:#ff6500;fill-opacity:1;stroke:#ffffff;stroke-width:0;stroke-miterlimit:4;stroke-dasharray:none;stroke-opacity:1"
     d="M 9.2066938,45.557219 47.945271,9.4682993 c 0.993665,0.4745417 1.715396,1.3720217 1.960905,2.4384027 l 4.675619,20.341022 c 0.218129,0.94685 0.04066,1.940943 -0.492043,2.755927 -0.06393,0.09861 -0.132692,0.194064 -0.206031,0.286016 L 40.765803,51.59981 c -0.687827,0.854927 -1.73071,1.352725 -2.833487,1.352511 l -21.036668,-0.0047 c -1.102392,5.23e-4 -2.145203,-0.496161 -2.833491,-1.35023 z"
     id="path3055"
     inkscape:connector-curvature="0"
     inkscape:export-filename="new.png"
     inkscape:export-xdpi="250.55"
     inkscape:export-ydpi="250.55"
     sodipodi:nodetypes="cccccccccccc" />
  <path
     style="fill:#000000;fill-opacity:1;fill-rule:evenodd;stroke:none;stroke-width:0.0958624px;stroke-linecap:butt;stroke-linejoin:miter;stroke-opacity:1"
     d="m 33.037689,12.382026 6.848998,3.688905 2.737308,7.721959 1.136808,7.23109 -5.654639,9.423112 -11.880839,3.88318 -10.821923,-4.687502 -3.871898,-8.049273 0.10158,-10.021863 10.488688,-9.083219 7.441829,-0.778784 z"
     id="path1375" />
  <path
     inkscape:connector-curvature="0"
     id="path3059"
     d="m 27.416735,2.3782426 c 0.774276,7.83e-5 1.402079,0.6974858 1.401987,1.5577637 -1e-6,0.013206 -0.0027,0.025823 -0.003,0.038944 0.0012,0.116891 0.0068,0.2577129 0.003,0.3594841 -0.01846,0.4961833 -0.126624,0.8759411 -0.191724,1.3330889 -0.117932,0.9784332 -0.216763,1.7894932 -0.155777,2.543346 0.05931,0.2842707 0.26869,0.5442517 0.455347,0.7249583 l 0.03295,0.5931472 c 0.841368,0.069718 1.688362,0.1973544 2.534363,0.3894438 3.640335,0.8265414 6.7746,2.7016974 9.160847,5.2334844 0.154839,-0.105635 0.425728,-0.299965 0.506275,-0.359487 0.250313,0.03383 0.503301,0.111035 0.832809,-0.08089 0.627411,-0.422334 1.198841,-1.005296 1.890281,-1.70755 0.316825,-0.335915 0.546255,-0.655793 0.922681,-0.979589 0.08548,-0.07354 0.215933,-0.172987 0.311548,-0.248644 0.294289,-0.23463 0.641385,-0.356993 0.976603,-0.368472 0.43098,-0.01474 0.845878,0.153748 1.117396,0.494293 0.482685,0.605403 0.328143,1.530735 -0.344511,2.067032 -0.0068,0.0052 -0.0141,0.0096 -0.02095,0.015 -0.09244,0.07492 -0.205619,0.170937 -0.290583,0.233666 -0.399441,0.294922 -0.76433,0.445895 -1.162328,0.680019 -0.838506,0.517833 -1.533644,0.947203 -2.08501,1.464901 -0.215305,0.229508 -0.252938,0.633929 -0.281592,0.808835 l -0.449354,0.401426 c 2.405515,3.620117 3.518803,8.091693 2.860889,12.647842 l 0.587153,0.170756 c 0.154748,0.199837 0.373424,0.514277 0.602143,0.608127 0.721374,0.227212 1.533244,0.310649 2.51339,0.413403 0.460166,0.03829 0.857214,0.01545 1.345066,0.107847 0.107377,0.02037 0.25698,0.05931 0.374467,0.08686 0.0038,6.47e-4 0.0078,0.002 0.01199,0.0032 0.0064,0.0012 0.01481,0.0044 0.02096,0.0058 0.826338,0.199662 1.35719,0.9592 1.186293,1.707548 -0.170936,0.748526 -0.978095,1.203724 -1.809403,1.024529 -0.0058,-0.0012 -0.01474,-0.0012 -0.02096,-0.0032 -0.0093,-0.002 -0.01765,-0.0067 -0.02697,-0.0089 -0.11588,-0.02541 -0.261105,-0.05374 -0.362475,-0.08089 -0.479633,-0.128422 -0.827001,-0.31711 -1.258197,-0.48231 -0.927654,-0.332715 -1.695972,-0.61066 -2.444491,-0.718964 -0.31262,-0.02451 -0.641999,0.192886 -0.80584,0.284589 l -0.611125,-0.104856 c -1.40631,4.360071 -4.353503,7.884178 -8.085386,10.095481 l 0.254636,0.611126 c -0.09178,0.237301 -0.193011,0.558367 -0.124643,0.792713 0.272122,0.705668 0.738232,1.450492 1.269,2.280875 0.256992,0.38363 0.520008,0.681352 0.75192,1.12039 0.05549,0.105053 0.126172,0.266435 0.179741,0.377461 0.360332,0.770958 0.09602,1.658916 -0.596144,1.992135 -0.696511,0.335316 -1.561066,-0.01837 -1.935222,-0.790863 -5.75e-4,-0.0012 -0.0025,-0.002 -0.003,-0.0032 -3.85e-4,-6.46e-4 3.82e-4,-0.002 0,-0.0032 -0.05329,-0.109528 -0.128794,-0.253494 -0.173751,-0.356488 -0.19864,-0.455064 -0.264734,-0.845031 -0.404419,-1.285156 -0.370952,-0.931793 -0.57476,-1.909483 -1.08541,-2.518699 -0.139832,-0.166824 -0.367806,-0.230977 -0.604165,-0.294262 l -0.317544,-0.575176 c -3.2534,1.248779 -6.895059,1.583887 -10.532878,0.757913 -0.829877,-0.188422 -1.631043,-0.432287 -2.405546,-0.724957 -0.08925,0.158299 -0.255102,0.462604 -0.29957,0.539225 -0.240192,0.07815 -0.50236,0.1185 -0.715972,0.434376 -0.382048,0.652722 -0.643323,1.424915 -0.961619,2.357613 -0.139708,0.440118 -0.208752,0.830104 -0.407416,1.285156 -0.04528,0.103731 -0.120404,0.24971 -0.17375,0.359482 -0.373367,0.775032 -1.240662,1.129903 -1.938218,0.793865 -0.692078,-0.333401 -0.95668,-1.221276 -0.596143,-1.992142 0.05358,-0.111023 0.127237,-0.272405 0.182739,-0.377455 0.231934,-0.439032 0.494908,-0.73378 0.751919,-1.117396 0.530809,-0.830357 0.971054,-1.520162 1.243215,-2.225809 0.113792,-0.363944 -0.01921,-0.590296 -0.107846,-0.826814 0.05309,-0.06084 0.166686,-0.404544 0.233664,-0.566185 -3.878343,-2.289976 -6.738986,-5.945505 -8.082395,-10.167402 -0.1814103,0.02851 -0.4967161,0.08429 -0.5991407,0.104856 -0.2108531,-0.139066 -0.4047247,-0.320518 -0.7848732,-0.290582 -0.7485248,0.108267 -1.5168181,0.3863 -2.4444898,0.718969 -0.4312039,0.165175 -0.7785559,0.356908 -1.2581941,0.485305 -0.1013728,0.02717 -0.2465942,0.05244 -0.3624791,0.07788 -0.00932,0.0026 -0.017571,0.0068 -0.02696,0.0089 -0.00628,0.0012 -0.014971,0.0012 -0.020972,0.0032 -0.8313529,0.178974 -1.6386555,-0.27596 -1.809402,-1.024523 -0.1707059,-0.748395 0.3598961,-1.508113 1.1862966,-1.70755 0.1202045,-0.02736 0.2906791,-0.07375 0.4074151,-0.09587 0.487855,-0.09239 0.8848978,-0.06959 1.3450688,-0.107834 0.9801512,-0.102705 1.7920034,-0.186231 2.5133923,-0.413404 0.2941308,-0.1141 0.503376,-0.464093 0.6051356,-0.608134 l 0.566221,-0.164766 C 9.0801424,28.069105 9.159297,25.85881 9.6672769,23.647274 10.179987,21.415147 11.086075,19.373648 12.294505,17.57499 12.149269,17.44296 11.874994,17.200085 11.79722,17.128632 11.774479,16.877077 11.794006,16.61332 11.533598,16.334773 10.982262,15.81705 10.287072,15.387751 9.4485917,14.86988 9.0506039,14.635729 8.682696,14.484801 8.2832634,14.189854 8.1929423,14.123151 8.0695973,14.017534 7.974707,13.94121 7.3021963,13.404733 7.14736,12.479459 7.6302025,11.87418 c 0.4828412,-0.605287 1.418487,-0.6623 2.0909976,-0.125823 0.095722,0.07581 0.2256163,0.174713 0.3115519,0.248643 0.376403,0.323823 0.608866,0.643656 0.925671,0.979598 0.691407,0.702278 1.262899,1.288176 1.890287,1.710542 0.271867,0.158275 0.670073,0.103509 0.850783,0.09287 l 0.533235,0.380453 c 3.040625,-3.187937 7.180524,-5.2264427 11.638257,-5.6224307 0.01247,-0.1868133 0.0288,-0.5244807 0.03295,-0.6261031 0.182493,-0.1746283 0.402949,-0.3237138 0.458341,-0.7009912 0.06099,-0.7538541 -0.04084,-1.564914 -0.158772,-2.5433534 -0.0651,-0.4571419 -0.173261,-0.8368997 -0.191725,-1.3330829 -0.0042,-0.1127952 0.0025,-0.2764686 0.003,-0.398428 9.4e-5,-0.860278 0.627711,-1.5578426 1.401989,-1.5577636 z m 1.755479,10.8743844 0.416402,7.354446 0.02996,0.015 c 0.02793,0.657934 0.569417,1.183301 1.234227,1.183301 0.272327,0 0.523691,-0.08745 0.727955,-0.23666 l 0.01199,0.0058 6.030342,-4.274868 c -1.85337,-1.822448 -4.223974,-3.169243 -6.956013,-3.789558 -0.499059,-0.11331 -0.997894,-0.197387 -1.494854,-0.257626 z m -3.513953,0 c -3.189674,0.392303 -6.139508,1.836613 -8.399941,4.050186 l 5.991398,4.247899 0.02097,-0.0089 c 0.531791,0.388408 1.281049,0.292036 1.695564,-0.227671 0.169803,-0.212908 0.258898,-0.463247 0.269613,-0.71597 l 0.0059,-0.0032 z m 14.151681,6.794248 -5.506095,4.924933 0.0059,0.02995 c -0.496985,0.432047 -0.570274,1.181779 -0.155776,1.701552 0.169791,0.212915 0.39707,0.355719 0.64108,0.422394 l 0.0059,0.02399 7.057866,2.037076 c 0.35931,-3.284739 -0.414857,-6.477774 -2.048969,-9.13988 z m -24.747469,0.0032 c -0.818099,1.326022 -1.437606,2.807058 -1.806407,4.412668 -0.36438,1.586357 -0.455826,3.169876 -0.305561,4.700248 l 7.093815,-2.043063 0.0059,-0.02995 c 0.635235,-0.173601 1.025628,-0.819764 0.877743,-1.467882 -0.06058,-0.265503 -0.201523,-0.490108 -0.392436,-0.656059 l 0.003,-0.015 -5.476137,-4.900959 z m 13.483641,5.302406 h -2.255762 l -1.401986,1.752482 0.503277,2.186858 2.025092,0.973601 2.031085,-0.976595 0.503277,-2.186859 z m -7.231618,5.997389 c -0.09586,-0.0044 -0.191301,0.0038 -0.284591,0.02096 l -0.01199,-0.015 -7.300518,1.234228 c 1.068435,3.001748 3.112921,5.602216 5.844609,7.342463 l 2.833931,-6.845174 -0.0089,-0.01199 c 0.260325,-0.604892 -1.92e-4,-1.314232 -0.599138,-1.6027 -0.153348,-0.07385 -0.313557,-0.114755 -0.473322,-0.122826 z m 12.261396,0.02995 c -0.557126,0.0078 -1.056846,0.394494 -1.186297,0.961617 -0.0606,0.265497 -0.03111,0.528563 0.0689,0.76091 l -0.02097,0.02697 2.803974,6.776274 c 2.621564,-1.68225 4.709648,-4.201079 5.826635,-7.291535 l -7.237609,-1.228232 -0.01199,0.015 c -0.08097,-0.01488 -0.163063,-0.02211 -0.242654,-0.02095 z m -6.114221,2.968739 c -0.194069,-0.007 -0.39099,0.03265 -0.578171,0.122826 -0.245361,0.118154 -0.434902,0.304189 -0.554204,0.527243 h -0.02697 l -3.567877,6.446741 c 0.463043,0.155228 0.939075,0.287886 1.425952,0.398433 2.728677,0.619545 5.448685,0.431828 7.911641,-0.407415 l -3.558888,-6.434771 h -0.0059 c -0.213579,-0.399185 -0.618577,-0.637352 -1.045528,-0.653041 z"
     style="color:#000000;font-style:normal;font-variant:normal;font-weight:normal;font-stretch:normal;font-size:medium;line-height:normal;font-family:Sans;-inkscape-font-specification:Sans;text-indent:0;text-align:start;text-decoration:none;text-decoration-line:none;letter-spacing:normal;word-spacing:normal;text-transform:none;writing-mode:lr-tb;direction:ltr;baseline-shift:baseline;text-anchor:start;display:inline;overflow:visible;visibility:visible;fill:#ffffff;fill-opacity:1;stroke:#ffffff;stroke-width:0.0239655;stroke-miterlimit:4;stroke-dasharray:none;stroke-opacity:1;marker:none;enable-background:accumulate"
     sodipodi:nodetypes="ccccccccsccccscssccsccccccccscccsccccccccccccccscccscsccsccccscscsccccccccscccscsccccsccccscscscccccccccccccccscccsccccccccccccscccccscccccccccccccccccccccccscccscccccccccscccscccc"
     inkscape:export-filename="./path3059.png"
     inkscape:export-xdpi="250.55"
     inkscape:export-ydpi="250.55" />
</svg>
